<?xml version="1.0" encoding="utf-8"?><!DOCTYPE svg PUBLIC "-//W3C//DTD SVG 1.1//EN" "http://www.w3.org/Graphics/SVG/1.1/DTD/svg11.dtd"><svg xmlns="http://www.w3.org/2000/svg" xml:space="preserve" width="1080" height="1080"><rect width="100%" height="100%" fill="transparent"/><defs><mask id="a"><rect width="100%" height="100%" fill="#fff"/><circle cx="776.94" cy="381.74" r="165"/><circle cx="370.63" cy="778.86" r="135"/></mask></defs><path d="M395.5 177.5c0 33.8-27.5 61-61 61-33.8 0-61-27.3-61-61s27.3-61 61-61c33.5 0 61 27.2 61 61zm52.5.2c0 63-51 113.8-113.7 113.8L225 371.3c-4 43-40.5 76.8-84.5 76.8-40.5 0-74.7-28.8-83-67L0 358V250.7L97.2 290c15.1-9.2 32.2-13.3 52-11.5l71-101.7c.5-62.3 51.5-112.8 114-112.8C397 64 448 115 448 177.7zM203 363c0-34.7-27.8-62.5-62.5-62.5-4.5 0-9 .5-13.5 1.5l26 10.5c25.5 10.2 38 39 27.7 64.5-10.2 25.5-39.2 38-64.7 27.5-10.2-4-20.5-8.3-30.7-12.2 10.5 19.7 31.2 33.2 55.2 33.2 34.7 0 62.5-27.8 62.5-62.5zm207.5-185.3c0-42-34.3-76.2-76.2-76.2-42.3 0-76.5 34.2-76.5 76.2 0 42.2 34.3 76.2 76.5 76.2 41.9.1 76.2-33.9 76.2-76.2z" style="stroke: rgb(0, 0, 0); stroke-width: 0; stroke-dasharray: none; stroke-linecap: butt; stroke-dashoffset: 0; stroke-linejoin: miter; stroke-miterlimit: 4; fill: rgb(255, 255, 255); fill-rule: nonzero; opacity: 1;" transform="matrix(2.1 0 0 2.1 73.52 11.975)" vector-effect="non-scaling-stroke"/><g mask="url(#a)"><path d="M15.5 2C7.492 2 1 8.492 1 16.5S7.492 31 15.5 31 30 24.508 30 16.5 23.508 2 15.5 2zm-4.748 1.854c-.714 1.29-1.56 3.295-2.113 6.13H3.655a13.584 13.584 0 0 1 7.096-6.13zm-7.598 7.133H8.47A34.532 34.532 0 0 0 8.055 16h-6.06c.067-1.782.468-3.475 1.16-5.013zM1.988 17H8.06a34.25 34.25 0 0 0 .422 5.013h-5.29C2.498 20.47 2.054 18.79 1.988 17zm1.682 6.015h4.977c.56 2.864 1.416 4.867 2.134 6.142a13.555 13.555 0 0 1-7.11-6.142zm11.392 6.994a13.41 13.41 0 0 1-3.045-.46c-.755-1.237-1.736-3.364-2.356-6.535h5.402v6.994zm0-7.997H9.484A34.514 34.514 0 0 1 9.064 17h5.997v5.013zm0-6.014H9.058a34.64 34.64 0 0 1 .417-5.013h5.587V16zm0-6.015H9.64c.615-3.148 1.59-5.266 2.344-6.525a13.52 13.52 0 0 1 3.078-.47v6.995zM29.002 16H23.07a34.663 34.663 0 0 0-.416-5.013h5.172A13.457 13.457 0 0 1 29.003 16zm-1.68-6.015h-4.837c-.55-2.806-1.382-4.8-2.09-6.09 2.966 1.154 5.4 3.335 6.927 6.09zM16.062 2.99c1.068.046 2.103.215 3.093.492.75 1.263 1.72 3.372 2.33 6.503h-5.422V2.99zm0 7.997h5.588A34.64 34.64 0 0 1 22.067 16h-6.004v-5.013zm0 6.014h6a34.235 34.235 0 0 1-.422 5.013h-5.577V17zm0 12.99v-6.976h5.403c-.617 3.152-1.59 5.27-2.343 6.512-.978.272-2.005.418-3.06.465zm4.305-.876c.714-1.276 1.56-3.266 2.112-6.1h4.834c-1.522 2.766-3.967 4.95-6.947 6.1zm7.428-7.1h-5.152c.234-1.472.398-3.12.423-5.013h5.927c-.067 1.788-.508 3.47-1.198 5.013z" style="stroke: rgb(0, 0, 0); stroke-width: 0; stroke-dasharray: none; stroke-linecap: butt; stroke-dashoffset: 0; stroke-linejoin: miter; stroke-miterlimit: 4; fill: rgb(255, 255, 255); fill-rule: nonzero; opacity: 1;" transform="translate(-24.505 -61.225) scale(36.43)" vector-effect="non-scaling-stroke"/><rect width="66.17" height="66.17" x="-33.085" y="-33.085" rx="0" ry="0" style="stroke: rgb(0, 0, 0); stroke-width: 0; stroke-dasharray: none; stroke-linecap: butt; stroke-dashoffset: 0; stroke-linejoin: miter; stroke-miterlimit: 4; fill: rgb(255, 255, 255); fill-rule: nonzero; opacity: 1;" transform="matrix(.75 0 0 2.81 68.35 630.5)" vector-effect="non-scaling-stroke"/></g></svg>