<?xml version="1.0" encoding="utf-8"?>
<!-- Generator: Adobe Illustrator 16.2.0, SVG Export Plug-In . SVG Version: 6.00 Build 0)  -->
<!DOCTYPE svg PUBLIC "-//W3C//DTD SVG 1.1//EN" "http://www.w3.org/Graphics/SVG/1.1/DTD/svg11.dtd">
<svg version="1.1" xmlns="http://www.w3.org/2000/svg" xmlns:xlink="http://www.w3.org/1999/xlink" x="0px" y="0px" width="256px"
	 height="256px" viewBox="0 0 256 256" enable-background="new 0 0 256 256" xml:space="preserve">
<g id="Background">
	<linearGradient id="SVGID_1_" gradientUnits="userSpaceOnUse" x1="127.6099" y1="0.7744" x2="128.3843" y2="253.1001">
		<stop  offset="0.5108" style="stop-color:#07172B"/>
		<stop  offset="1" style="stop-color:#0B85B6"/>
	</linearGradient>
	<circle fill="url(#SVGID_1_)" cx="128" cy="128" r="128"/>
</g>
<g id="World">
	<path fill="#FFFFFF" d="M29.496,127.999c0-54.397,44.106-98.503,98.503-98.503c54.398,0,98.505,44.106,98.505,98.503
		c0,54.398-44.106,98.505-98.505,98.505C73.602,226.504,29.496,182.397,29.496,127.999z M121.844,42.759
		c-8.249,2.513-16.438,10.088-23.232,22.834c-1.754,3.306-3.402,6.901-4.871,10.75c8.683,1.924,18.121,3.149,28.103,3.522V42.759z
		 M81.814,73.072c1.743-4.726,3.74-9.163,5.928-13.275c2.116-4.029,4.582-7.865,7.348-11.496
		C84.603,52.655,75.08,59.027,67.06,67.048c4.461,2.273,9.402,4.292,14.754,6.037V73.072z M72.7,121.844
		c0.444-13.18,2.32-25.696,5.375-37.035c-6.661-2.141-13.119-4.882-19.275-8.212c-9.8,13.166-15.62,28.869-16.773,45.248h30.662
		H72.7z M89.942,88.09c-2.897,11.028-4.557,22.354-4.93,33.754h36.832V92.18C110.636,91.807,99.887,90.387,89.942,88.09z
		 M134.156,92.167v29.677h36.818c-0.361-11.4-2.019-22.726-4.918-33.754c-9.944,2.297-20.694,3.717-31.9,4.09V92.167z
		 M85.025,134.156c0.433,12.145,2.164,23.568,4.917,33.752c10.474-2.381,21.163-3.738,31.902-4.075v-29.677H85.025z
		 M134.156,134.156v29.664c11.206,0.373,21.956,1.791,31.9,4.088c2.755-10.184,4.485-21.607,4.93-33.752H134.156z M93.741,179.656
		c1.479,3.849,3.117,7.443,4.871,10.75c6.794,12.746,14.995,20.31,23.232,22.834v-37.096c-9.981,0.362-19.42,1.601-28.103,3.536
		V179.656z M95.1,207.698c-2.764-3.631-5.229-7.468-7.358-11.496c-2.272-4.293-4.256-8.729-5.928-13.286
		c-5.062,1.622-9.993,3.643-14.754,6.035c8.02,8.021,17.543,14.394,28.029,18.747H95.1z M78.074,171.19
		c-3.199-12.096-5.002-24.528-5.387-37.034H42.025c1.154,16.376,6.974,32.08,16.773,45.247
		C64.583,176.229,71.052,173.476,78.074,171.19z M160.91,207.698c10.474-4.354,19.998-10.715,28.017-18.734
		c-4.748-2.394-9.678-4.4-14.741-6.037c-1.67,4.547-3.655,8.995-5.928,13.275C166.142,200.23,163.677,204.067,160.91,207.698z
		 M134.156,176.133v37.107c8.248-2.513,16.437-10.088,23.23-22.834c1.757-3.307,3.403-6.901,4.871-10.75
		c-9.247-2.019-18.649-3.199-28.102-3.512V176.133z M177.926,171.19c7.021,2.285,13.491,5.039,19.274,8.213
		c9.8-13.167,15.621-28.871,16.775-45.247h-30.664C182.927,146.662,181.124,159.095,177.926,171.19z M213.976,121.844
		C212.821,105.465,207,89.762,197.2,76.596c-5.783,3.173-12.253,5.927-19.274,8.212c3.054,11.327,4.929,23.855,5.386,37.035H213.976
		z M168.258,59.797c2.188,4.112,4.185,8.549,5.939,13.275c5.052-1.636,9.981-3.643,14.729-6.037
		c-8.019-8.008-17.543-14.381-28.017-18.709C163.592,51.813,166.057,55.673,168.258,59.797z M162.258,76.343
		c-1.407-3.68-3.019-7.264-4.871-10.75c-6.794-12.747-14.982-20.309-23.23-22.834v37.095c9.981-0.361,19.42-1.599,28.102-3.536
		V76.343z"/>
</g>
</svg>
